<?xml version="1.0" encoding="UTF-8"?>
<svg xmlns="http://www.w3.org/2000/svg" xmlns:xlink="http://www.w3.org/1999/xlink" width="px" height="px" viewBox="0 0 224 256" version="1.1">
<g id="surface1">
<path style=" stroke:none;fill-rule:nonzero;fill:rgb(0%,0%,0%);fill-opacity:1;" d="M 223.550781 128 C 223.550781 136.851562 216.851562 144 208 144 L 54.648438 144 L 107.351562 196.699219 C 113.601562 202.949219 113.601562 213.074219 107.351562 219.324219 C 104.199219 222.449219 100.101562 224 96 224 C 91.898438 224 87.808594 222.4375 84.691406 219.3125 L 4.691406 139.3125 C -1.558594 133.0625 -1.558594 122.9375 4.691406 116.6875 L 84.691406 36.6875 C 90.941406 30.4375 101.066406 30.4375 107.316406 36.6875 C 113.566406 42.9375 113.566406 53.0625 107.316406 59.3125 L 54.648438 112 L 208 112 C 216.851562 112 223.550781 119.148438 223.550781 128 Z M 223.550781 128 "/>
</g>
</svg>
