<?xml version="1.0" encoding="UTF-8"?>
<svg xmlns="http://www.w3.org/2000/svg" xmlns:xlink="http://www.w3.org/1999/xlink" width="px" height="px" viewBox="0 0 224 256" version="1.1">
<g id="surface1">
<path style=" stroke:none;fill-rule:nonzero;fill:rgb(0%,0%,0%);fill-opacity:1;" d="M 219.300781 139.300781 L 139.300781 219.300781 C 136.199219 222.449219 132.101562 224 128 224 C 123.898438 224 119.808594 222.4375 116.691406 219.3125 C 110.441406 213.0625 110.441406 202.9375 116.691406 196.6875 L 169.398438 144 L 16 144 C 7.164062 144 0 136.851562 0 128 C 0 119.148438 7.164062 112 16 112 L 169.398438 112 L 116.699219 59.300781 C 110.449219 53.050781 110.449219 42.925781 116.699219 36.675781 C 122.949219 30.425781 133.074219 30.425781 139.324219 36.675781 L 219.324219 116.675781 C 225.550781 122.949219 225.550781 133.050781 219.300781 139.300781 Z M 219.300781 139.300781 "/>
</g>
</svg>
